<svg id="图层_1" data-name="图层 1" xmlns="http://www.w3.org/2000/svg" viewBox="0 0 17.5 19.58"><defs><style>.cls-1{fill:#d4237a;}</style></defs><title>小火车站</title><path class="cls-1" d="M101.25,100.21v5h5.42a1.25,1.25,0,0,1,0,2.5H93.33a1.25,1.25,0,0,1,0-2.5h5.42v-5H97.5a1.25,1.25,0,0,1,0-2.5h5a1.25,1.25,0,0,1,0,2.5Zm-2.9-10.68a1.68,1.68,0,0,1,1.91-1.39,1.7,1.7,0,0,1,1.39,1.39,8.75,8.75,0,0,1,4.54,14.78,1.25,1.25,0,0,1-1.77-1.77h0a6.25,6.25,0,1,0-8.84,0h0a1.25,1.25,0,0,1-1.77,1.77,8.75,8.75,0,0,1,4.54-14.78Z" transform="translate(-91.25 -88.12)"/></svg>